PathFileType	4	(X/Y/Z)	paretic_pre_fa151403.trc
DataRate	CameraRate	NumFrames	NumMarkers	Units	OrigDataRate	OrigDataStartFrame	OrigNumFrames
58.68	58.68	16	11	cm	58.68	255	1017
Frame#	Time	NOSE			LEFT_SHOULDER			RIGHT_SHOULDER			LEFT_ELBOW			RIGHT_ELBOW			LEFT_WRIST			RIGHT_WRIST			LEFT_HIP			RIGHT_HIP			LEFT_INDEX			RIGHT_INDEX		
		X1	Y1	Z1	X2	Y2	Z2	X3	Y3	Z3	X4	Y4	Z4	X5	Y5	Z5	X6	Y6	Z6	X7	Y7	Z7	X8	Y8	Z8	X9	Y9	Z9	X10	Y10	Z10	X11	Y11	Z11
284	4.840143570536829	9.432169	-61.064408	-24.094939	10.872924	-50.184827	14.876243	-23.178558	-59.431478	-1.088647	19.381854	-22.534646	16.303993	-36.006868	-20.536435	-12.571974	36.035239	-6.517178	9.169916	-21.654658	-5.792963	-26.764502	10.000257	-2.139718	12.124399	-9.594986	1.580483	-11.718516	38.343760	-4.510877	4.842177	-6.278197	-11.874108	-35.886333
285	4.857186329588015	9.335026	-61.065728	-23.717753	10.812938	-50.171976	15.314005	-23.282172	-59.438480	-0.620397	19.478234	-22.568403	17.225214	-36.017924	-20.535121	-12.180278	36.235440	-6.497937	10.623681	-21.694857	-5.763702	-26.762459	10.000012	-2.129369	12.124549	-9.595028	1.567128	-11.718379	38.494433	-4.451326	6.268922	-6.371660	-11.861330	-35.912726
286	4.874229088639201	9.208104	-61.064847	-23.429417	10.674372	-50.157906	15.660359	-23.406669	-59.437180	-0.376878	19.399695	-22.577702	17.709066	-36.052315	-20.526074	-12.081739	36.089130	-6.497174	11.038298	-21.734570	-5.734943	-26.808251	10.000059	-2.118904	12.124627	-9.595787	1.554025	-11.718027	38.293777	-4.446321	6.650315	-6.406188	-11.834213	-36.023184
287	4.891271847690387	9.187288	-61.115114	-23.454845	10.783192	-50.183714	15.637574	-23.379576	-59.458220	-0.391246	19.468683	-22.633451	17.528662	-35.916885	-20.478438	-12.017383	36.112939	-6.589291	10.264238	-21.261252	-5.667356	-26.595826	10.004208	-2.116928	12.129423	-9.600233	1.551771	-11.723070	38.299894	-4.518705	5.803781	-5.784993	-11.779363	-35.823121
288	4.908314606741573	9.139093	-61.121450	-23.466177	10.795675	-50.174673	15.608756	-23.366211	-59.448001	-0.398966	19.452867	-22.574177	17.488715	-35.918014	-20.406296	-11.922179	36.090275	-6.530178	10.189034	-21.227532	-5.497228	-26.302072	10.004029	-2.114801	12.132939	-9.600107	1.549526	-11.726791	38.280893	-4.472541	5.727325	-5.704964	-11.568853	-35.496775
289	4.925357365792759	9.000670	-61.129034	-23.450158	10.757796	-50.533500	15.683661	-23.383922	-59.639177	-0.290660	19.439818	-23.309635	17.519027	-35.902791	-20.497094	-11.577918	35.703451	-6.882398	10.219723	-21.206007	-5.523511	-25.587868	10.003014	-2.114799	12.133397	-9.599042	1.549363	-11.727597	37.593572	-4.580244	5.786182	-5.671038	-11.576879	-34.805835
290	4.942400124843945	8.997519	-61.127969	-24.376697	10.762456	-50.529422	14.899970	-23.379639	-59.620392	-1.066624	19.123282	-23.212936	16.915403	-35.866642	-20.494498	-12.148909	35.639085	-6.835985	9.802042	-21.189900	-5.494584	-26.114415	10.002871	-2.121645	12.135914	-9.599157	1.556528	-11.729364	37.600144	-4.557374	5.371912	-5.667545	-11.527814	-35.381975
291	4.959442883895131	9.076857	-61.123672	-24.805564	10.765747	-50.602577	14.443935	-23.355128	-59.619795	-1.781680	19.146001	-23.224561	16.675398	-35.726960	-20.471653	-12.669919	35.718426	-6.836370	9.686447	-21.040419	-5.475320	-26.500849	10.001623	-2.125261	12.140996	-9.598323	1.559655	-11.733841	37.687677	-4.571470	5.290524	-5.565911	-11.508583	-35.722106
292	4.976485642946317	9.097128	-61.093782	-24.669909	10.574485	-50.484207	14.546922	-23.338014	-59.316763	-1.824893	18.881560	-23.113792	16.904639	-35.777666	-20.247000	-12.677945	35.560288	-6.429714	10.050366	-21.052024	-4.968359	-26.381866	9.989141	-2.125859	12.162431	-9.586854	1.559935	-11.753541	37.638458	-4.046363	5.744499	-5.560075	-10.930647	-35.518834
293	4.993528401997503	9.376531	-61.179460	-25.802086	10.773514	-50.749928	13.516025	-23.121930	-59.479702	-2.927738	18.955871	-23.387827	15.927920	-35.417267	-20.375616	-13.629479	35.634617	-6.894131	9.067895	-20.636647	-5.165801	-27.491289	9.987707	-2.127547	12.165721	-9.586096	1.561228	-11.757058	37.694050	-4.520438	4.773536	-5.146965	-11.091323	-36.776146
294	5.010571161048689	9.628025	-61.157059	-26.160223	10.813812	-50.769042	13.364397	-22.801732	-59.383408	-3.617393	19.268514	-23.675582	15.996610	-35.229584	-20.377905	-14.263054	35.663626	-6.953710	9.900417	-20.139629	-5.128623	-27.462018	9.954126	-2.149145	12.197810	-9.551330	1.584935	-11.790703	37.696012	-4.543283	5.904691	-4.416940	-10.964742	-36.700099
295	5.027613920099875	9.682598	-61.159269	-26.685502	10.684856	-50.874480	12.186910	-22.777081	-59.334505	-5.208034	18.914090	-23.661714	14.670752	-35.206189	-20.220382	-15.623708	35.134983	-6.964387	8.000084	-20.096508	-5.091475	-28.114971	9.935051	-2.167836	12.206845	-9.532635	1.603885	-11.799716	37.183681	-4.594220	4.003361	-4.377498	-10.948182	-37.164896
296	5.044656679151061	9.696437	-61.192104	-26.924600	10.688229	-50.942708	12.038785	-22.774386	-59.350374	-5.162631	18.758100	-23.657729	14.235928	-35.210539	-20.301208	-16.038361	35.135727	-7.069859	7.254040	-20.118226	-5.170873	-29.170986	9.934642	-2.183370	12.207431	-9.532627	1.620360	-11.800094	37.196143	-4.719767	3.135210	-4.406059	-11.007707	-38.239724
297	5.061699438202247	9.693961	-61.188261	-26.886006	10.383438	-50.949515	12.121561	-22.807997	-59.332892	-4.935686	18.255934	-23.648227	14.723117	-35.290156	-20.277559	-15.819699	35.138001	-6.988648	8.701701	-20.165795	-5.119453	-29.064622	9.921483	-2.192430	12.210202	-9.521337	1.629723	-11.801992	37.296645	-4.598005	4.724638	-4.426229	-10.962657	-38.204562
298	5.078742197253433	9.648831	-61.199878	-27.150492	10.432967	-50.950076	12.034455	-22.816096	-59.322238	-4.845040	18.284250	-23.644896	13.842053	-35.281066	-20.240613	-15.929896	35.059273	-7.109381	6.184941	-20.148033	-5.121367	-29.579751	9.925301	-2.196499	12.210220	-9.526541	1.633101	-11.801565	37.129957	-4.715649	1.857849	-4.416965	-10.972540	-38.821603
299	5.09578495630462	9.571251	-61.193269	-27.613993	10.328703	-50.946867	11.727584	-22.929663	-59.254798	-5.145680	17.988209	-23.627995	13.921334	-35.419802	-20.140618	-15.924313	34.941866	-7.093812	6.430399	-20.213786	-4.924134	-29.437699	9.924857	-2.217203	12.208824	-9.526312	1.655459	-11.799651	37.122654	-4.709219	2.239201	-4.477072	-10.810782	-38.681897
